<svg id="svg" width="800" height="680" xmlns="http://www.w3.org/2000/svg" xmlns:xlink="http://www.w3.org/1999/xlink" viewBox="0 0 800 680"><g transform="translate(-24.677806529430995,6.868492344444519) scale(1.0000000000000002)"><g id="maingroup" transform="translate(140,60)"><g transform="translate(260,280)"><g fill="none"><path stroke="#4b4b4b" distance="30" stroke-width="1" d="M-4.489790610450508,-47.67758493826841
    A33.142537814795666,33.142537814795666 0 0,1 -36.47221694287989,-56.36966286566232"></path><path stroke="#4b4b4b" distance="30" stroke-width="1" d="M-4.489790610450508,-47.67758493826841
    A33.22173961486662,33.22173961486662 0 0,1 -2.2697785358755853,-80.82506643274608"></path><path stroke="#4b4b4b" distance="30" stroke-width="1" d="M55.329031247940186,5.893977643899987
    A35.03382136910472,35.03382136910472 0 0,1 70.65610859557032,37.397141607256145"></path><path stroke="#4b4b4b" distance="30" stroke-width="1" d="M55.329031247940186,5.893977643899987
    A34.87607652941092,34.87607652941092 0 0,1 90.03195235846997,9.36499773627544"></path><path stroke="#4b4b4b" distance="30" stroke-width="1" d="M-4.411912607666412,12.198344576107768
    A34.645511069676694,34.645511069676694 0 0,1 -20.083384616366395,43.09683001406448"></path><path stroke="#4b4b4b" distance="30" stroke-width="1" d="M-4.411912607666412,12.198344576107768
    A34.85290353848752,34.85290353848752 0 0,1 -39.222613101791445,13.91299211173699"></path><path stroke="#4b4b4b" distance="30" stroke-width="1" d="M-20.083384616366395,43.09683001406448
    A34.89994930836766,34.89994930836766 0 0,1 -39.222613101791445,13.91299211173699"></path><path stroke="#4b4b4b" distance="30" stroke-width="1" d="M70.65610859557032,37.397141607256145
    A34.07674297123565,34.07674297123565 0 0,1 90.03195235846997,9.36499773627544"></path></g><g fill="currentColor" stroke-linecap="round"><g transform="translate(-4.489790610450508,-47.67758493826841)"><path d="M10.704744696916627,0A10.704744696916627,10.704744696916627,0,1,1,-10.704744696916627,0A10.704744696916627,10.704744696916627,0,1,1,10.704744696916627,0" stroke="#4b4b4b" fill="#b7b7ff" stroke-width="1" fill-opacity="1"></path></g><g transform="translate(-84.54404588048813,44.508368459481225)"><path d="M2.5231325220201604,0A2.5231325220201604,2.5231325220201604,0,1,1,-2.5231325220201604,0A2.5231325220201604,2.5231325220201604,0,1,1,2.5231325220201604,0" stroke="#4b4b4b" fill="#b7b7ff" stroke-width="1" fill-opacity="1"></path></g><g transform="translate(50.77544290479911,-47.67107635011234)"><path d="M2.5231325220201604,0A2.5231325220201604,2.5231325220201604,0,1,1,-2.5231325220201604,0A2.5231325220201604,2.5231325220201604,0,1,1,2.5231325220201604,0" stroke="#4b4b4b" fill="#b7b7ff" stroke-width="1" fill-opacity="1"></path></g><g transform="translate(17.875589346379456,76.68804398564345)"><path d="M2.5231325220201604,0A2.5231325220201604,2.5231325220201604,0,1,1,-2.5231325220201604,0A2.5231325220201604,2.5231325220201604,0,1,1,2.5231325220201604,0" stroke="#4b4b4b" fill="#b7b7ff" stroke-width="1" fill-opacity="1"></path></g><g transform="translate(-113.19650574883283,2.4297035360706594)"><path d="M2.5231325220201604,0A2.5231325220201604,2.5231325220201604,0,1,1,-2.5231325220201604,0A2.5231325220201604,2.5231325220201604,0,1,1,2.5231325220201604,0" stroke="#4b4b4b" fill="#b7b7ff" stroke-width="1" fill-opacity="1"></path></g><g transform="translate(42.79331801195465,-103.50314469328084)"><path d="M2.5231325220201604,0A2.5231325220201604,2.5231325220201604,0,1,1,-2.5231325220201604,0A2.5231325220201604,2.5231325220201604,0,1,1,2.5231325220201604,0" stroke="#4b4b4b" fill="#b7b7ff" stroke-width="1" fill-opacity="1"></path></g><g transform="translate(-30.91743744715333,94.54832947088826)"><path d="M2.5231325220201604,0A2.5231325220201604,2.5231325220201604,0,1,1,-2.5231325220201604,0A2.5231325220201604,2.5231325220201604,0,1,1,2.5231325220201604,0" stroke="#4b4b4b" fill="#b7b7ff" stroke-width="1" fill-opacity="1"></path></g><g transform="translate(-75.32432669669197,-98.09364384721448)"><path d="M2.5231325220201604,0A2.5231325220201604,2.5231325220201604,0,1,1,-2.5231325220201604,0A2.5231325220201604,2.5231325220201604,0,1,1,2.5231325220201604,0" stroke="#4b4b4b" fill="#a6ffa4" stroke-width="1" fill-opacity="1"></path></g><g transform="translate(137.65898200066692,28.964167795114545)"><path d="M2.5231325220201604,0A2.5231325220201604,2.5231325220201604,0,1,1,-2.5231325220201604,0A2.5231325220201604,2.5231325220201604,0,1,1,2.5231325220201604,0" stroke="#4b4b4b" fill="#b7b7ff" stroke-width="1" fill-opacity="1"></path></g><g transform="translate(55.329031247940186,5.893977643899987)"><path d="M10.704744696916627,0A10.704744696916627,10.704744696916627,0,1,1,-10.704744696916627,0A10.704744696916627,10.704744696916627,0,1,1,10.704744696916627,0" stroke="#4b4b4b" fill="#b7b7ff" stroke-width="1" fill-opacity="1"></path></g><g transform="translate(22.681324721134775,-147.4727251604862)"><path d="M2.5231325220201604,0A2.5231325220201604,2.5231325220201604,0,1,1,-2.5231325220201604,0A2.5231325220201604,2.5231325220201604,0,1,1,2.5231325220201604,0" stroke="#4b4b4b" fill="#b7b7ff" stroke-width="1" fill-opacity="1"></path></g><g transform="translate(54.87717131483046,93.56576126502478)"><path d="M2.5231325220201604,0A2.5231325220201604,2.5231325220201604,0,1,1,-2.5231325220201604,0A2.5231325220201604,2.5231325220201604,0,1,1,2.5231325220201604,0" stroke="#4b4b4b" fill="#b7b7ff" stroke-width="1" fill-opacity="1"></path></g><g transform="translate(-83.0215844696126,-35.94314378064597)"><path d="M2.5231325220201604,0A2.5231325220201604,2.5231325220201604,0,1,1,-2.5231325220201604,0A2.5231325220201604,2.5231325220201604,0,1,1,2.5231325220201604,0" stroke="#4b4b4b" fill="#b7b7ff" stroke-width="1" fill-opacity="1"></path></g><g transform="translate(100.93146879633362,-51.46271948418157)"><path d="M2.5231325220201604,0A2.5231325220201604,2.5231325220201604,0,1,1,-2.5231325220201604,0A2.5231325220201604,2.5231325220201604,0,1,1,2.5231325220201604,0" stroke="#4b4b4b" fill="#b7b7ff" stroke-width="1" fill-opacity="1"></path></g><g transform="translate(-77.65838337266172,99.59743609701745)"><path d="M2.5231325220201604,0A2.5231325220201604,2.5231325220201604,0,1,1,-2.5231325220201604,0A2.5231325220201604,2.5231325220201604,0,1,1,2.5231325220201604,0" stroke="#4b4b4b" fill="#b7b7ff" stroke-width="1" fill-opacity="1"></path></g><g transform="translate(-71.32882801163926,-149.9928940191727)"><path d="M2.5231325220201604,0A2.5231325220201604,2.5231325220201604,0,1,1,-2.5231325220201604,0A2.5231325220201604,2.5231325220201604,0,1,1,2.5231325220201604,0" stroke="#4b4b4b" fill="#b7b7ff" stroke-width="1" fill-opacity="1"></path></g><g transform="translate(102.0037738218776,94.59545864492429)"><path d="M2.5231325220201604,0A2.5231325220201604,2.5231325220201604,0,1,1,-2.5231325220201604,0A2.5231325220201604,2.5231325220201604,0,1,1,2.5231325220201604,0" stroke="#4b4b4b" fill="#b7b7ff" stroke-width="1" fill-opacity="1"></path></g><g transform="translate(-144.92140680721957,-33.480062388833296)"><path d="M2.5231325220201604,0A2.5231325220201604,2.5231325220201604,0,1,1,-2.5231325220201604,0A2.5231325220201604,2.5231325220201604,0,1,1,2.5231325220201604,0" stroke="#4b4b4b" fill="#b7b7ff" stroke-width="1" fill-opacity="1"></path></g><g transform="translate(-4.411912607666412,12.198344576107768)"><path d="M10.704744696916627,0A10.704744696916627,10.704744696916627,0,1,1,-10.704744696916627,0A10.704744696916627,10.704744696916627,0,1,1,10.704744696916627,0" stroke="#4b4b4b" fill="#b7b7ff" stroke-width="1" fill-opacity="1"></path></g><g transform="translate(-20.083384616366395,43.09683001406448)"><path d="M10.704744696916627,0A10.704744696916627,10.704744696916627,0,1,1,-10.704744696916627,0A10.704744696916627,10.704744696916627,0,1,1,10.704744696916627,0" stroke="#4b4b4b" fill="#a6ffa4" stroke-width="1" fill-opacity="1"></path></g><g transform="translate(-39.222613101791445,13.91299211173699)"><path d="M10.704744696916627,0A10.704744696916627,10.704744696916627,0,1,1,-10.704744696916627,0A10.704744696916627,10.704744696916627,0,1,1,10.704744696916627,0" stroke="#4b4b4b" fill="#a6ffa4" stroke-width="1" fill-opacity="1"></path></g><g transform="translate(136.22931221959078,-23.991275040515003)"><path d="M2.5231325220201604,0A2.5231325220201604,2.5231325220201604,0,1,1,-2.5231325220201604,0A2.5231325220201604,2.5231325220201604,0,1,1,2.5231325220201604,0" stroke="#4b4b4b" fill="#b7b7ff" stroke-width="1" fill-opacity="1"></path></g><g transform="translate(-120.52487026299768,80.56438293319408)"><path d="M2.5231325220201604,0A2.5231325220201604,2.5231325220201604,0,1,1,-2.5231325220201604,0A2.5231325220201604,2.5231325220201604,0,1,1,2.5231325220201604,0" stroke="#4b4b4b" fill="#b7b7ff" stroke-width="1" fill-opacity="1"></path></g><g transform="translate(-27.500334040948765,-131.74958400233066)"><path d="M2.5231325220201604,0A2.5231325220201604,2.5231325220201604,0,1,1,-2.5231325220201604,0A2.5231325220201604,2.5231325220201604,0,1,1,2.5231325220201604,0" stroke="#4b4b4b" fill="#b7b7ff" stroke-width="1" fill-opacity="1"></path></g><g transform="translate(115.59140385068757,158.1545124705608)"><path d="M2.5231325220201604,0A2.5231325220201604,2.5231325220201604,0,1,1,-2.5231325220201604,0A2.5231325220201604,2.5231325220201604,0,1,1,2.5231325220201604,0" stroke="#4b4b4b" fill="#b7b7ff" stroke-width="1" fill-opacity="1"></path></g><g transform="translate(-36.47221694287989,-56.36966286566232)"><path d="M7.776816725043752,0A7.776816725043752,7.776816725043752,0,1,1,-7.776816725043752,0A7.776816725043752,7.776816725043752,0,1,1,7.776816725043752,0" stroke="#4b4b4b" fill="#b7b7ff" stroke-width="1" fill-opacity="1"></path></g><g transform="translate(89.24111937187337,-100.67495992151784)"><path d="M2.5231325220201604,0A2.5231325220201604,2.5231325220201604,0,1,1,-2.5231325220201604,0A2.5231325220201604,2.5231325220201604,0,1,1,2.5231325220201604,0" stroke="#4b4b4b" fill="#b7b7ff" stroke-width="1" fill-opacity="1"></path></g><g transform="translate(-39.917293425455256,134.0454201913731)"><path d="M2.5231325220201604,0A2.5231325220201604,2.5231325220201604,0,1,1,-2.5231325220201604,0A2.5231325220201604,2.5231325220201604,0,1,1,2.5231325220201604,0" stroke="#4b4b4b" fill="#b7b7ff" stroke-width="1" fill-opacity="1"></path></g><g transform="translate(-37.64376131852469,-187.8733877305913)"><path d="M2.5231325220201604,0A2.5231325220201604,2.5231325220201604,0,1,1,-2.5231325220201604,0A2.5231325220201604,2.5231325220201604,0,1,1,2.5231325220201604,0" stroke="#4b4b4b" fill="#b7b7ff" stroke-width="1" fill-opacity="1"></path></g><g transform="translate(150.82176159301667,74.09639668687304)"><path d="M2.5231325220201604,0A2.5231325220201604,2.5231325220201604,0,1,1,-2.5231325220201604,0A2.5231325220201604,2.5231325220201604,0,1,1,2.5231325220201604,0" stroke="#4b4b4b" fill="#b7b7ff" stroke-width="1" fill-opacity="1"></path></g><g transform="translate(-149.03264893676794,37.420328976455984)"><path d="M2.5231325220201604,0A2.5231325220201604,2.5231325220201604,0,1,1,-2.5231325220201604,0A2.5231325220201604,2.5231325220201604,0,1,1,2.5231325220201604,0" stroke="#4b4b4b" fill="#b7b7ff" stroke-width="1" fill-opacity="1"></path></g><g transform="translate(101.61915870560978,-147.54174842906565)"><path d="M2.5231325220201604,0A2.5231325220201604,2.5231325220201604,0,1,1,-2.5231325220201604,0A2.5231325220201604,2.5231325220201604,0,1,1,2.5231325220201604,0" stroke="#4b4b4b" fill="#b7b7ff" stroke-width="1" fill-opacity="1"></path></g><g transform="translate(19.178307813134136,136.1090675089787)"><path d="M2.5231325220201604,0A2.5231325220201604,2.5231325220201604,0,1,1,-2.5231325220201604,0A2.5231325220201604,2.5231325220201604,0,1,1,2.5231325220201604,0" stroke="#4b4b4b" fill="#b7b7ff" stroke-width="1" fill-opacity="1"></path></g><g transform="translate(-120.08730583152833,-75.21458938549584)"><path d="M2.5231325220201604,0A2.5231325220201604,2.5231325220201604,0,1,1,-2.5231325220201604,0A2.5231325220201604,2.5231325220201604,0,1,1,2.5231325220201604,0" stroke="#4b4b4b" fill="#b7b7ff" stroke-width="1" fill-opacity="1"></path></g><g transform="translate(184.66622104685442,-55.09034620228003)"><path d="M2.5231325220201604,0A2.5231325220201604,2.5231325220201604,0,1,1,-2.5231325220201604,0A2.5231325220201604,2.5231325220201604,0,1,1,2.5231325220201604,0" stroke="#4b4b4b" fill="#b7b7ff" stroke-width="1" fill-opacity="1"></path></g><g transform="translate(-95.4491171655315,159.66286654716734)"><path d="M2.5231325220201604,0A2.5231325220201604,2.5231325220201604,0,1,1,-2.5231325220201604,0A2.5231325220201604,2.5231325220201604,0,1,1,2.5231325220201604,0" stroke="#4b4b4b" fill="#b7b7ff" stroke-width="1" fill-opacity="1"></path></g><g transform="translate(-2.2697785358755853,-80.82506643274608)"><path d="M7.776816725043752,0A7.776816725043752,7.776816725043752,0,1,1,-7.776816725043752,0A7.776816725043752,7.776816725043752,0,1,1,7.776816725043752,0" stroke="#4b4b4b" fill="#a6ffa4" stroke-width="1" fill-opacity="1"></path></g><g transform="translate(70.65610859557032,37.397141607256145)"><path d="M10.704744696916627,0A10.704744696916627,10.704744696916627,0,1,1,-10.704744696916627,0A10.704744696916627,10.704744696916627,0,1,1,10.704744696916627,0" stroke="#4b4b4b" fill="#a6ffa4" stroke-width="1" fill-opacity="1"></path></g><g transform="translate(-191.33583736258888,-23.220659412196863)"><path d="M2.5231325220201604,0A2.5231325220201604,2.5231325220201604,0,1,1,-2.5231325220201604,0A2.5231325220201604,2.5231325220201604,0,1,1,2.5231325220201604,0" stroke="#4b4b4b" fill="#a6ffa4" stroke-width="1" fill-opacity="1"></path></g><g transform="translate(90.03195235846997,9.36499773627544)"><path d="M10.704744696916627,0A10.704744696916627,10.704744696916627,0,1,1,-10.704744696916627,0A10.704744696916627,10.704744696916627,0,1,1,10.704744696916627,0" stroke="#4b4b4b" fill="#a6ffa4" stroke-width="1" fill-opacity="1"></path></g><g transform="translate(-6.021081586005759,182.1667658386868)"><path d="M2.5231325220201604,0A2.5231325220201604,2.5231325220201604,0,1,1,-2.5231325220201604,0A2.5231325220201604,2.5231325220201604,0,1,1,2.5231325220201604,0" stroke="#4b4b4b" fill="#a6ffa4" stroke-width="1" fill-opacity="1"></path></g><g transform="translate(-113.58783839272736,-161.26509347493788)"><path d="M2.5231325220201604,0A2.5231325220201604,2.5231325220201604,0,1,1,-2.5231325220201604,0A2.5231325220201604,2.5231325220201604,0,1,1,2.5231325220201604,0" stroke="#4b4b4b" fill="#a6ffa4" stroke-width="1" fill-opacity="1"></path></g><g transform="translate(190.46117564400916,44.04526988558415)"><path d="M2.5231325220201604,0A2.5231325220201604,2.5231325220201604,0,1,1,-2.5231325220201604,0A2.5231325220201604,2.5231325220201604,0,1,1,2.5231325220201604,0" stroke="#4b4b4b" fill="#b7b7ff" stroke-width="1" fill-opacity="1"></path></g><g transform="translate(-170.70213835057913,89.81694213141736)"><path d="M2.5231325220201604,0A2.5231325220201604,2.5231325220201604,0,1,1,-2.5231325220201604,0A2.5231325220201604,2.5231325220201604,0,1,1,2.5231325220201604,0" stroke="#4b4b4b" fill="#b7b7ff" stroke-width="1" fill-opacity="1"></path></g><g transform="translate(69.06599504097554,-178.79681377882872)"><path d="M2.5231325220201604,0A2.5231325220201604,2.5231325220201604,0,1,1,-2.5231325220201604,0A2.5231325220201604,2.5231325220201604,0,1,1,2.5231325220201604,0" stroke="#4b4b4b" fill="#b7b7ff" stroke-width="1" fill-opacity="1"></path></g><g transform="translate(71.10817926038584,149.21674334977965)"><path d="M2.5231325220201604,0A2.5231325220201604,2.5231325220201604,0,1,1,-2.5231325220201604,0A2.5231325220201604,2.5231325220201604,0,1,1,2.5231325220201604,0" stroke="#4b4b4b" fill="#b7b7ff" stroke-width="1" fill-opacity="1"></path></g><g transform="translate(-175.50633496540036,-78.55713325574166)"><path d="M2.5231325220201604,0A2.5231325220201604,2.5231325220201604,0,1,1,-2.5231325220201604,0A2.5231325220201604,2.5231325220201604,0,1,1,2.5231325220201604,0" stroke="#4b4b4b" fill="#b7b7ff" stroke-width="1" fill-opacity="1"></path></g><g transform="translate(148.84708908394683,-83.4954523747458)"><path d="M2.5231325220201604,0A2.5231325220201604,2.5231325220201604,0,1,1,-2.5231325220201604,0A2.5231325220201604,2.5231325220201604,0,1,1,2.5231325220201604,0" stroke="#4b4b4b" fill="#b7b7ff" stroke-width="1" fill-opacity="1"></path></g><g transform="translate(-53.679134563687086,184.45485439045402)"><path d="M2.5231325220201604,0A2.5231325220201604,2.5231325220201604,0,1,1,-2.5231325220201604,0A2.5231325220201604,2.5231325220201604,0,1,1,2.5231325220201604,0" stroke="#4b4b4b" fill="#b7b7ff" stroke-width="1" fill-opacity="1"></path></g><g transform="translate(14.961144360544514,-192.66374640052013)"><path d="M2.5231325220201604,0A2.5231325220201604,2.5231325220201604,0,1,1,-2.5231325220201604,0A2.5231325220201604,2.5231325220201604,0,1,1,2.5231325220201604,0" stroke="#4b4b4b" fill="#b7b7ff" stroke-width="1" fill-opacity="1"></path></g><g transform="translate(152.5768275017159,118.94175390654857)"><path d="M2.5231325220201604,0A2.5231325220201604,2.5231325220201604,0,1,1,-2.5231325220201604,0A2.5231325220201604,2.5231325220201604,0,1,1,2.5231325220201604,0" stroke="#4b4b4b" fill="#b7b7ff" stroke-width="1" fill-opacity="1"></path></g><g transform="translate(-192.29137417386843,32.22049175629053)"><path d="M2.5231325220201604,0A2.5231325220201604,2.5231325220201604,0,1,1,-2.5231325220201604,0A2.5231325220201604,2.5231325220201604,0,1,1,2.5231325220201604,0" stroke="#4b4b4b" fill="#b7b7ff" stroke-width="1" fill-opacity="1"></path></g><g transform="translate(146.80349776936947,-128.33521237778774)"><path d="M2.5231325220201604,0A2.5231325220201604,2.5231325220201604,0,1,1,-2.5231325220201604,0A2.5231325220201604,2.5231325220201604,0,1,1,2.5231325220201604,0" stroke="#4b4b4b" fill="#b7b7ff" stroke-width="1" fill-opacity="1"></path></g><g transform="translate(41.744797524136224,189.82957208265998)"><path d="M2.5231325220201604,0A2.5231325220201604,2.5231325220201604,0,1,1,-2.5231325220201604,0A2.5231325220201604,2.5231325220201604,0,1,1,2.5231325220201604,0" stroke="#4b4b4b" fill="#b7b7ff" stroke-width="1" fill-opacity="1"></path></g><g transform="translate(-141.3280643630135,-121.33278274013796)"><path d="M2.5231325220201604,0A2.5231325220201604,2.5231325220201604,0,1,1,-2.5231325220201604,0A2.5231325220201604,2.5231325220201604,0,1,1,2.5231325220201604,0" stroke="#4b4b4b" fill="#b7b7ff" stroke-width="1" fill-opacity="1"></path></g><g transform="translate(184.30218182073494,-6.13747839151887)"><path d="M2.5231325220201604,0A2.5231325220201604,2.5231325220201604,0,1,1,-2.5231325220201604,0A2.5231325220201604,2.5231325220201604,0,1,1,2.5231325220201604,0" stroke="#4b4b4b" fill="#b7b7ff" stroke-width="1" fill-opacity="1"></path></g><g transform="translate(-134.22069415270417,132.4900850933115)"><path d="M2.5231325220201604,0A2.5231325220201604,2.5231325220201604,0,1,1,-2.5231325220201604,0A2.5231325220201604,2.5231325220201604,0,1,1,2.5231325220201604,0" stroke="#4b4b4b" fill="#b7b7ff" stroke-width="1" fill-opacity="1"></path></g></g></g></g><g transform="translate(592.0077514648438,131.66818237304688)" text-anchor="start"><text class="legend-title-text-color-categories-of-nodes-0" font-size="20" fill="#000000" font-weight="bold" text-anchor="start" font-style="normal" x="0" y="-20" xml:space="preserve"><tspan>PGHs</tspan></text><g transform="translate(0,0)"><g transform="translate(0,0)"><g><path d="M6.180387232371033,0A6.180387232371033,6.180387232371033,0,1,1,-6.180387232371033,0A6.180387232371033,6.180387232371033,0,1,1,6.180387232371033,0" fill="#b7b7ff" stroke="#000000" stroke-width="0" class="legend-symbol-path-color-categories-of-nodes-0" fill-opacity="1" stroke-opacity="1"></path></g><text class="legend-item-text-color-categories-of-nodes-0" dy="0.3em" font-size="16" fill="#000000" font-weight="normal" text-anchor="start" font-style="normal" x="10" xml:space="preserve">Possess</text></g><g transform="translate(0,25)"><g><path d="M6.180387232371033,0A6.180387232371033,6.180387232371033,0,1,1,-6.180387232371033,0A6.180387232371033,6.180387232371033,0,1,1,6.180387232371033,0" fill="#a6ffa4" stroke="#000000" stroke-width="0" class="legend-symbol-path-color-categories-of-nodes-0" fill-opacity="1" stroke-opacity="1"></path></g><text class="legend-item-text-color-categories-of-nodes-0" dy="0.3em" font-size="16" fill="#000000" font-weight="normal" text-anchor="start" font-style="normal" x="10" xml:space="preserve">Non-possess</text></g></g></g></g><defs><marker id="arrow-test" viewBox="0 -5 10 10" refX="15" refY="-0.5" markerWidth="6" markerHeight="6" orient="auto"><path fill="#4b4b4b" d="M0,-5L10,0L0,5"></path></marker></defs><defs><marker id="arrow-test" viewBox="0 -5 10 10" refX="15" refY="-0.5" markerWidth="6" markerHeight="6" orient="auto"><path fill="#4b4b4b" d="M0,-5L10,0L0,5"></path></marker></defs><defs><marker id="arrow-test" viewBox="0 -5 10 10" refX="15" refY="-0.5" markerWidth="6" markerHeight="6" orient="auto"><path fill="#4b4b4b" d="M0,-5L10,0L0,5"></path></marker></defs><defs><marker id="arrow-test" viewBox="0 -5 10 10" refX="15" refY="-0.5" markerWidth="6" markerHeight="6" orient="auto"><path fill="#4b4b4b" d="M0,-5L10,0L0,5"></path></marker></defs><defs><marker id="arrow-test" viewBox="0 -5 10 10" refX="15" refY="-0.5" markerWidth="6" markerHeight="6" orient="auto"><path fill="#4b4b4b" d="M0,-5L10,0L0,5"></path></marker></defs><defs><marker id="arrow-test" viewBox="0 -5 10 10" refX="15" refY="-0.5" markerWidth="6" markerHeight="6" orient="auto"><path fill="#4b4b4b" d="M0,-5L10,0L0,5"></path></marker></defs><defs><marker id="arrow-test" viewBox="0 -5 10 10" refX="15" refY="-0.5" markerWidth="6" markerHeight="6" orient="auto"><path fill="#4b4b4b" d="M0,-5L10,0L0,5"></path></marker></defs><defs><marker id="arrow-test" viewBox="0 -5 10 10" refX="15" refY="-0.5" markerWidth="6" markerHeight="6" orient="auto"><path fill="#4b4b4b" d="M0,-5L10,0L0,5"></path></marker></defs><defs><marker id="arrow-test" viewBox="0 -5 10 10" refX="15" refY="-0.5" markerWidth="6" markerHeight="6" orient="auto"><path fill="#4b4b4b" d="M0,-5L10,0L0,5"></path></marker></defs><defs><marker id="arrow-test" viewBox="0 -5 10 10" refX="15" refY="-0.5" markerWidth="6" markerHeight="6" orient="auto"><path fill="#4b4b4b" d="M0,-5L10,0L0,5"></path></marker></defs><defs><marker id="arrow-test" viewBox="0 -5 10 10" refX="15" refY="-0.5" markerWidth="6" markerHeight="6" orient="auto"><path fill="#4b4b4b" d="M0,-5L10,0L0,5"></path></marker></defs><defs><marker id="arrow-test" viewBox="0 -5 10 10" refX="15" refY="-0.5" markerWidth="6" markerHeight="6" orient="auto"><path fill="#4b4b4b" d="M0,-5L10,0L0,5"></path></marker></defs><defs><marker id="arrow-test" viewBox="0 -5 10 10" refX="15" refY="-0.5" markerWidth="6" markerHeight="6" orient="auto"><path fill="#4b4b4b" d="M0,-5L10,0L0,5"></path></marker></defs><defs><marker id="arrow-test" viewBox="0 -5 10 10" refX="15" refY="-0.5" markerWidth="6" markerHeight="6" orient="auto"><path fill="#4b4b4b" d="M0,-5L10,0L0,5"></path></marker></defs><defs><marker id="arrow-test" viewBox="0 -5 10 10" refX="15" refY="-0.5" markerWidth="6" markerHeight="6" orient="auto"><path fill="#4b4b4b" d="M0,-5L10,0L0,5"></path></marker></defs><defs><marker id="arrow-test" viewBox="0 -5 10 10" refX="15" refY="-0.5" markerWidth="6" markerHeight="6" orient="auto"><path fill="#4b4b4b" d="M0,-5L10,0L0,5"></path></marker></defs><defs><marker id="arrow-test" viewBox="0 -5 10 10" refX="15" refY="-0.5" markerWidth="6" markerHeight="6" orient="auto"><path fill="#4b4b4b" d="M0,-5L10,0L0,5"></path></marker></defs><defs><marker id="arrow-test" viewBox="0 -5 10 10" refX="15" refY="-0.5" markerWidth="6" markerHeight="6" orient="auto"><path fill="#4b4b4b" d="M0,-5L10,0L0,5"></path></marker></defs><defs><marker id="arrow-test" viewBox="0 -5 10 10" refX="15" refY="-0.5" markerWidth="6" markerHeight="6" orient="auto"><path fill="#4b4b4b" d="M0,-5L10,0L0,5"></path></marker></defs><defs><marker id="arrow-test" viewBox="0 -5 10 10" refX="15" refY="-0.5" markerWidth="6" markerHeight="6" orient="auto"><path fill="#4b4b4b" d="M0,-5L10,0L0,5"></path></marker></defs><defs><marker id="arrow-test" viewBox="0 -5 10 10" refX="15" refY="-0.5" markerWidth="6" markerHeight="6" orient="auto"><path fill="#4b4b4b" d="M0,-5L10,0L0,5"></path></marker></defs><defs><marker id="arrow-test" viewBox="0 -5 10 10" refX="15" refY="-0.5" markerWidth="6" markerHeight="6" orient="auto"><path fill="#4b4b4b" d="M0,-5L10,0L0,5"></path></marker></defs><defs><marker id="arrow-test" viewBox="0 -5 10 10" refX="15" refY="-0.5" markerWidth="6" markerHeight="6" orient="auto"><path fill="#4b4b4b" d="M0,-5L10,0L0,5"></path></marker></defs><defs><marker id="arrow-test" viewBox="0 -5 10 10" refX="15" refY="-0.5" markerWidth="6" markerHeight="6" orient="auto"><path fill="#4b4b4b" d="M0,-5L10,0L0,5"></path></marker></defs><defs><marker id="arrow-test" viewBox="0 -5 10 10" refX="15" refY="-0.5" markerWidth="6" markerHeight="6" orient="auto"><path fill="#4b4b4b" d="M0,-5L10,0L0,5"></path></marker></defs><defs><marker id="arrow-test" viewBox="0 -5 10 10" refX="15" refY="-0.5" markerWidth="6" markerHeight="6" orient="auto"><path fill="#4b4b4b" d="M0,-5L10,0L0,5"></path></marker></defs><defs><marker id="arrow-test" viewBox="0 -5 10 10" refX="15" refY="-0.5" markerWidth="6" markerHeight="6" orient="auto"><path fill="#4b4b4b" d="M0,-5L10,0L0,5"></path></marker></defs><defs><marker id="arrow-test" viewBox="0 -5 10 10" refX="15" refY="-0.5" markerWidth="6" markerHeight="6" orient="auto"><path fill="#4b4b4b" d="M0,-5L10,0L0,5"></path></marker></defs><defs><marker id="arrow-test" viewBox="0 -5 10 10" refX="15" refY="-0.5" markerWidth="6" markerHeight="6" orient="auto"><path fill="#4b4b4b" d="M0,-5L10,0L0,5"></path></marker></defs><defs><marker id="arrow-test" viewBox="0 -5 10 10" refX="15" refY="-0.5" markerWidth="6" markerHeight="6" orient="auto"><path fill="#4b4b4b" d="M0,-5L10,0L0,5"></path></marker></defs><defs><marker id="arrow-test" viewBox="0 -5 10 10" refX="15" refY="-0.5" markerWidth="6" markerHeight="6" orient="auto"><path fill="#4b4b4b" d="M0,-5L10,0L0,5"></path></marker></defs><defs><marker id="arrow-test" viewBox="0 -5 10 10" refX="15" refY="-0.5" markerWidth="6" markerHeight="6" orient="auto"><path fill="#4b4b4b" d="M0,-5L10,0L0,5"></path></marker></defs><defs><marker id="arrow-test" viewBox="0 -5 10 10" refX="15" refY="-0.5" markerWidth="6" markerHeight="6" orient="auto"><path fill="#4b4b4b" d="M0,-5L10,0L0,5"></path></marker></defs><defs><marker id="arrow-test" viewBox="0 -5 10 10" refX="15" refY="-0.5" markerWidth="6" markerHeight="6" orient="auto"><path fill="#4b4b4b" d="M0,-5L10,0L0,5"></path></marker></defs></svg>