<svg id="svg" width="800" height="680" xmlns="http://www.w3.org/2000/svg" xmlns:xlink="http://www.w3.org/1999/xlink" viewBox="0 0 800 680"><g transform="translate(116.1453437133091,105.73397574762501) scale(0.6597539553864471)"><g id="maingroup" transform="translate(140,60)"><g transform="translate(260,280)"><g fill="none"><path stroke="#4b4b4b" distance="30" stroke-width="1" d="M150.14715880014327,-29.162551783380007
    A38.06194125109733,38.06194125109733 0 0,1 151.11462309539056,8.887091902723103"></path><path stroke="#4b4b4b" distance="30" stroke-width="1" d="M150.14715880014327,-29.162551783380007
    A45.82285831832618,45.82285831832618 0 0,1 185.71720666275255,-0.2747335979738807"></path><path stroke="#4b4b4b" distance="30" stroke-width="1" d="M150.14715880014327,-29.162551783380007
    A29.63037881294374,29.63037881294374 0 0,1 124.5450619988416,-14.246386459298746"></path><path stroke="#4b4b4b" distance="30" stroke-width="1" d="M150.14715880014327,-29.162551783380007
    A34.27684439689153,34.27684439689153 0 0,1 165.0299085801036,-60.039822077170626"></path><path stroke="#4b4b4b" distance="30" stroke-width="1" d="M150.14715880014327,-29.162551783380007
    A27.990525191672024,27.990525191672024 0 0,1 131.18602832898404,-49.75247727526324"></path><path stroke="#4b4b4b" distance="30" stroke-width="1" d="M150.14715880014327,-29.162551783380007
    A43.65680920808461,43.65680920808461 0 0,1 193.00462487093426,-37.478475798310626"></path><path stroke="#4b4b4b" distance="30" stroke-width="1" d="M-65.43250256833166,10.588210588756452
    A31.54871504925562,31.54871504925562 0 0,1 -72.26255426536427,-20.212305885403353"></path><path stroke="#4b4b4b" distance="30" stroke-width="1" d="M-65.43250256833166,10.588210588756452
    A40.42247688953524,40.42247688953524 0 0,1 -105.83187295419484,9.22164177934643"></path><path stroke="#4b4b4b" distance="30" stroke-width="1" d="M-65.43250256833166,10.588210588756452
    A30.95003917346531,30.95003917346531 0 0,1 -47.56680808189474,-14.684737109451106"></path><path stroke="#4b4b4b" distance="30" stroke-width="1" d="M-65.43250256833166,10.588210588756452
    A46.13255128613652,46.13255128613652 0 0,1 -42.79846925629256,50.78662876904709"></path><path stroke="#4b4b4b" distance="30" stroke-width="1" d="M-65.43250256833166,10.588210588756452
    A34.552007722249314,34.552007722249314 0 0,1 -31.343392765462923,4.951382536887671"></path><path stroke="#4b4b4b" distance="30" stroke-width="1" d="M-65.43250256833166,10.588210588756452
    A49.45550248565716,49.45550248565716 0 0,1 -65.56929548991425,60.04352389082185"></path><path stroke="#4b4b4b" distance="30" stroke-width="1" d="M-65.43250256833166,10.588210588756452
    A36.10096200058453,36.10096200058453 0 0,1 -34.24087616699187,28.764070948224738"></path><path stroke="#4b4b4b" distance="30" stroke-width="1" d="M-65.43250256833166,10.588210588756452
    A51.2440178032669,51.2440178032669 0 0,1 -91.3022437463892,54.82287857668023"></path><path stroke="#4b4b4b" distance="30" stroke-width="1" d="M-65.43250256833166,10.588210588756452
    A37.99401589551997,37.99401589551997 0 0,1 -95.35222455010617,-12.82878068686099"></path><path stroke="#4b4b4b" distance="30" stroke-width="1" d="M-65.43250256833166,10.588210588756452
    A48.386911854491565,48.386911854491565 0 0,1 -107.87397213508957,33.82643125704984"></path><path stroke="#4b4b4b" distance="30" stroke-width="1" d="M-72.26255426536427,-20.212305885403353
    A44.6459005101644,44.6459005101644 0 0,1 -105.83187295419484,9.22164177934643"></path><path stroke="#4b4b4b" distance="30" stroke-width="1" d="M-72.26255426536427,-20.212305885403353
    A25.306795453617436,25.306795453617436 0 0,1 -47.56680808189474,-14.684737109451106"></path><path stroke="#4b4b4b" distance="30" stroke-width="1" d="M-72.26255426536427,-20.212305885403353
    A76.86989675737003,76.86989675737003 0 0,1 -42.79846925629256,50.78662876904709"></path><path stroke="#4b4b4b" distance="30" stroke-width="1" d="M-72.26255426536427,-20.212305885403353
    A48.03737079471723,48.03737079471723 0 0,1 -31.343392765462923,4.951382536887671"></path><path stroke="#4b4b4b" distance="30" stroke-width="1" d="M-72.26255426536427,-20.212305885403353
    A49.851783538036855,49.851783538036855 0 0,1 -75.6140759330929,29.526689122879908"></path><path stroke="#4b4b4b" distance="30" stroke-width="1" d="M-72.26255426536427,-20.212305885403353
    A62.002689402684744,62.002689402684744 0 0,1 -34.24087616699187,28.764070948224738"></path><path stroke="#4b4b4b" distance="30" stroke-width="1" d="M-72.26255426536427,-20.212305885403353
    A77.41310407671791,77.41310407671791 0 0,1 -91.3022437463892,54.82287857668023"></path><path stroke="#4b4b4b" distance="30" stroke-width="1" d="M-72.26255426536427,-20.212305885403353
    A24.241479290992185,24.241479290992185 0 0,1 -95.35222455010617,-12.82878068686099"></path><path stroke="#4b4b4b" distance="30" stroke-width="1" d="M-72.26255426536427,-20.212305885403353
    A64.71752617833396,64.71752617833396 0 0,1 -107.87397213508957,33.82643125704984"></path><path stroke="#4b4b4b" distance="30" stroke-width="1" d="M30.30639141810752,-127.81550652076862
    A36.355732494895655,36.355732494895655 0 0,1 60.756252207885865,-147.67866999297343"></path><path stroke="#4b4b4b" distance="30" stroke-width="1" d="M30.30639141810752,-127.81550652076862
    A36.19015496458106,36.19015496458106 0 0,1 11.82264742634854,-158.92946680240917"></path><path stroke="#4b4b4b" distance="30" stroke-width="1" d="M-105.83187295419484,9.22164177934643
    A62.97882768159537,62.97882768159537 0 0,1 -47.56680808189474,-14.684737109451106"></path><path stroke="#4b4b4b" distance="30" stroke-width="1" d="M-105.83187295419484,9.22164177934643
    A75.50402721177662,75.50402721177662 0 0,1 -42.79846925629256,50.78662876904709"></path><path stroke="#4b4b4b" distance="30" stroke-width="1" d="M-105.83187295419484,9.22164177934643
    A74.61078202796773,74.61078202796773 0 0,1 -31.343392765462923,4.951382536887671"></path><path stroke="#4b4b4b" distance="30" stroke-width="1" d="M-105.83187295419484,9.22164177934643
    A36.40618360157588,36.40618360157588 0 0,1 -75.6140759330929,29.526689122879908"></path><path stroke="#4b4b4b" distance="30" stroke-width="1" d="M-105.83187295419484,9.22164177934643
    A64.83778871476032,64.83778871476032 0 0,1 -65.56929548991425,60.04352389082185"></path><path stroke="#4b4b4b" distance="30" stroke-width="1" d="M-105.83187295419484,9.22164177934643
    A47.86003470916867,47.86003470916867 0 0,1 -91.3022437463892,54.82287857668023"></path><path stroke="#4b4b4b" distance="30" stroke-width="1" d="M-105.83187295419484,9.22164177934643
    A24.414015679759505,24.414015679759505 0 0,1 -95.35222455010617,-12.82878068686099"></path><path stroke="#4b4b4b" distance="30" stroke-width="1" d="M-105.83187295419484,9.22164177934643
    A24.689387078392926,24.689387078392926 0 0,1 -107.87397213508957,33.82643125704984"></path><path stroke="#4b4b4b" distance="30" stroke-width="1" d="M60.756252207885865,-147.67866999297343
    A36.08656909607877,36.08656909607877 0 0,1 42.56687990199143,-178.84575526323295"></path><path stroke="#4b4b4b" distance="30" stroke-width="1" d="M-47.56680808189474,-14.684737109451106
    A65.64477744003649,65.64477744003649 0 0,1 -42.79846925629256,50.78662876904709"></path><path stroke="#4b4b4b" distance="30" stroke-width="1" d="M-47.56680808189474,-14.684737109451106
    A25.471089479933248,25.471089479933248 0 0,1 -31.343392765462923,4.951382536887671"></path><path stroke="#4b4b4b" distance="30" stroke-width="1" d="M-47.56680808189474,-14.684737109451106
    A52.35742013710856,52.35742013710856 0 0,1 -75.6140759330929,29.526689122879908"></path><path stroke="#4b4b4b" distance="30" stroke-width="1" d="M-47.56680808189474,-14.684737109451106
    A76.86613392776313,76.86613392776313 0 0,1 -65.56929548991425,60.04352389082185"></path><path stroke="#4b4b4b" distance="30" stroke-width="1" d="M-47.56680808189474,-14.684737109451106
    A45.446445218887966,45.446445218887966 0 0,1 -34.24087616699187,28.764070948224738"></path><path stroke="#4b4b4b" distance="30" stroke-width="1" d="M-47.56680808189474,-14.684737109451106
    A47.821444993673765,47.821444993673765 0 0,1 -95.35222455010617,-12.82878068686099"></path><path stroke="#4b4b4b" distance="30" stroke-width="1" d="M-47.56680808189474,-14.684737109451106
    A77.39694756527518,77.39694756527518 0 0,1 -107.87397213508957,33.82643125704984"></path><path stroke="#4b4b4b" distance="30" stroke-width="1" d="M151.11462309539056,8.887091902723103
    A35.79494148677284,35.79494148677284 0 0,1 185.71720666275255,-0.2747335979738807"></path><path stroke="#4b4b4b" distance="30" stroke-width="1" d="M151.11462309539056,8.887091902723103
    A35.22924066722671,35.22924066722671 0 0,1 124.5450619988416,-14.246386459298746"></path><path stroke="#4b4b4b" distance="30" stroke-width="1" d="M151.11462309539056,8.887091902723103
    A35.087882420409585,35.087882420409585 0 0,1 168.87727770048923,-21.37257752918667"></path><path stroke="#4b4b4b" distance="30" stroke-width="1" d="M151.11462309539056,8.887091902723103
    A61.93341555851326,61.93341555851326 0 0,1 131.18602832898404,-49.75247727526324"></path><path stroke="#4b4b4b" distance="30" stroke-width="1" d="M151.11462309539056,8.887091902723103
    A62.48630343518647,62.48630343518647 0 0,1 193.00462487093426,-37.478475798310626"></path><path stroke="#4b4b4b" distance="30" stroke-width="1" d="M38.12064479151004,77.9000902813549
    A36.36551716449938,36.36551716449938 0 0,1 74.43009235540794,75.8814629640801"></path><path stroke="#4b4b4b" distance="30" stroke-width="1" d="M38.12064479151004,77.9000902813549
    A37.40299421384399,37.40299421384399 0 0,1 43.96102303300427,40.955889678863485"></path><path stroke="#4b4b4b" distance="30" stroke-width="1" d="M74.43009235540794,75.8814629640801
    A36.899950286721506,36.899950286721506 0 0,1 78.74034045710573,39.23411527745578"></path><path stroke="#4b4b4b" distance="30" stroke-width="1" d="M-42.79846925629256,50.78662876904709
    A47.24498464994398,47.24498464994398 0 0,1 -31.343392765462923,4.951382536887671"></path><path stroke="#4b4b4b" distance="30" stroke-width="1" d="M-42.79846925629256,50.78662876904709
    A39.10049968127178,39.10049968127178 0 0,1 -75.6140759330929,29.526689122879908"></path><path stroke="#4b4b4b" distance="30" stroke-width="1" d="M-42.79846925629256,50.78662876904709
    A24.580492970185347,24.580492970185347 0 0,1 -65.56929548991425,60.04352389082185"></path><path stroke="#4b4b4b" distance="30" stroke-width="1" d="M-42.79846925629256,50.78662876904709
    A23.626795221813534,23.626795221813534 0 0,1 -34.24087616699187,28.764070948224738"></path><path stroke="#4b4b4b" distance="30" stroke-width="1" d="M-42.79846925629256,50.78662876904709
    A48.67142336418535,48.67142336418535 0 0,1 -91.3022437463892,54.82287857668023"></path><path stroke="#4b4b4b" distance="30" stroke-width="1" d="M-42.79846925629256,50.78662876904709
    A67.24930761408831,67.24930761408831 0 0,1 -107.87397213508957,33.82643125704984"></path><path stroke="#4b4b4b" distance="30" stroke-width="1" d="M185.71720666275255,-0.2747335979738807
    A62.747417209474165,62.747417209474165 0 0,1 124.5450619988416,-14.246386459298746"></path><path stroke="#4b4b4b" distance="30" stroke-width="1" d="M185.71720666275255,-0.2747335979738807
    A26.994485103440798,26.994485103440798 0 0,1 168.87727770048923,-21.37257752918667"></path><path stroke="#4b4b4b" distance="30" stroke-width="1" d="M185.71720666275255,-0.2747335979738807
    A63.244210034489214,63.244210034489214 0 0,1 165.0299085801036,-60.039822077170626"></path><path stroke="#4b4b4b" distance="30" stroke-width="1" d="M185.71720666275255,-0.2747335979738807
    A37.91074910694929,37.91074910694929 0 0,1 193.00462487093426,-37.478475798310626"></path><path stroke="#4b4b4b" distance="30" stroke-width="1" d="M-31.343392765462923,4.951382536887671
    A50.63436660929206,50.63436660929206 0 0,1 -75.6140759330929,29.526689122879908"></path><path stroke="#4b4b4b" distance="30" stroke-width="1" d="M-31.343392765462923,4.951382536887671
    A64.85797141651496,64.85797141651496 0 0,1 -65.56929548991425,60.04352389082185"></path><path stroke="#4b4b4b" distance="30" stroke-width="1" d="M-31.343392765462923,4.951382536887671
    A23.98832089658554,23.98832089658554 0 0,1 -34.24087616699187,28.764070948224738"></path><path stroke="#4b4b4b" distance="30" stroke-width="1" d="M-31.343392765462923,4.951382536887671
    A77.98865256048452,77.98865256048452 0 0,1 -91.3022437463892,54.82287857668023"></path><path stroke="#4b4b4b" distance="30" stroke-width="1" d="M-31.343392765462923,4.951382536887671
    A66.43240738297763,66.43240738297763 0 0,1 -95.35222455010617,-12.82878068686099"></path><path stroke="#4b4b4b" distance="30" stroke-width="1" d="M124.5450619988416,-14.246386459298746
    A44.90131343493154,44.90131343493154 0 0,1 168.87727770048923,-21.37257752918667"></path><path stroke="#4b4b4b" distance="30" stroke-width="1" d="M124.5450619988416,-14.246386459298746
    A61.12333063893441,61.12333063893441 0 0,1 165.0299085801036,-60.039822077170626"></path><path stroke="#4b4b4b" distance="30" stroke-width="1" d="M124.5450619988416,-14.246386459298746
    A36.12180669387404,36.12180669387404 0 0,1 131.18602832898404,-49.75247727526324"></path><path stroke="#4b4b4b" distance="30" stroke-width="1" d="M168.87727770048923,-21.37257752918667
    A38.858178676851175,38.858178676851175 0 0,1 165.0299085801036,-60.039822077170626"></path><path stroke="#4b4b4b" distance="30" stroke-width="1" d="M168.87727770048923,-21.37257752918667
    A47.18102360888695,47.18102360888695 0 0,1 131.18602832898404,-49.75247727526324"></path><path stroke="#4b4b4b" distance="30" stroke-width="1" d="M168.87727770048923,-21.37257752918667
    A29.009116507376643,29.009116507376643 0 0,1 193.00462487093426,-37.478475798310626"></path><path stroke="#4b4b4b" distance="30" stroke-width="1" d="M-75.6140759330929,29.526689122879908
    A32.12747762283143,32.12747762283143 0 0,1 -65.56929548991425,60.04352389082185"></path><path stroke="#4b4b4b" distance="30" stroke-width="1" d="M-75.6140759330929,29.526689122879908
    A41.380227710417664,41.380227710417664 0 0,1 -34.24087616699187,28.764070948224738"></path><path stroke="#4b4b4b" distance="30" stroke-width="1" d="M-75.6140759330929,29.526689122879908
    A29.766017708465878,29.766017708465878 0 0,1 -91.3022437463892,54.82287857668023"></path><path stroke="#4b4b4b" distance="30" stroke-width="1" d="M-75.6140759330929,29.526689122879908
    A46.72879555082899,46.72879555082899 0 0,1 -95.35222455010617,-12.82878068686099"></path><path stroke="#4b4b4b" distance="30" stroke-width="1" d="M-75.6140759330929,29.526689122879908
    A32.54517914198592,32.54517914198592 0 0,1 -107.87397213508957,33.82643125704984"></path><path stroke="#4b4b4b" distance="30" stroke-width="1" d="M-65.56929548991425,60.04352389082185
    A44.27046457471396,44.27046457471396 0 0,1 -34.24087616699187,28.764070948224738"></path><path stroke="#4b4b4b" distance="30" stroke-width="1" d="M-65.56929548991425,60.04352389082185
    A26.257184987475057,26.257184987475057 0 0,1 -91.3022437463892,54.82287857668023"></path><path stroke="#4b4b4b" distance="30" stroke-width="1" d="M-65.56929548991425,60.04352389082185
    A78.72353928696931,78.72353928696931 0 0,1 -95.35222455010617,-12.82878068686099"></path><path stroke="#4b4b4b" distance="30" stroke-width="1" d="M-65.56929548991425,60.04352389082185
    A49.76968567532474,49.76968567532474 0 0,1 -107.87397213508957,33.82643125704984"></path><path stroke="#4b4b4b" distance="30" stroke-width="1" d="M42.56687990199143,-178.84575526323295
    A36.631494326209484,36.631494326209484 0 0,1 11.82264742634854,-158.92946680240917"></path><path stroke="#4b4b4b" distance="30" stroke-width="1" d="M-34.24087616699187,28.764070948224738
    A62.73006555909173,62.73006555909173 0 0,1 -91.3022437463892,54.82287857668023"></path><path stroke="#4b4b4b" distance="30" stroke-width="1" d="M-34.24087616699187,28.764070948224738
    A73.9226772265495,73.9226772265495 0 0,1 -95.35222455010617,-12.82878068686099"></path><path stroke="#4b4b4b" distance="30" stroke-width="1" d="M-34.24087616699187,28.764070948224738
    A73.80691237102019,73.80691237102019 0 0,1 -107.87397213508957,33.82643125704984"></path><path stroke="#4b4b4b" distance="30" stroke-width="1" d="M-91.3022437463892,54.82287857668023
    A67.77277731966396,67.77277731966396 0 0,1 -95.35222455010617,-12.82878068686099"></path><path stroke="#4b4b4b" distance="30" stroke-width="1" d="M-91.3022437463892,54.82287857668023
    A26.74832671093413,26.74832671093413 0 0,1 -107.87397213508957,33.82643125704984"></path><path stroke="#4b4b4b" distance="30" stroke-width="1" d="M165.0299085801036,-60.039822077170626
    A35.37283835834286,35.37283835834286 0 0,1 131.18602832898404,-49.75247727526324"></path><path stroke="#4b4b4b" distance="30" stroke-width="1" d="M165.0299085801036,-60.039822077170626
    A35.93882437513915,35.93882437513915 0 0,1 193.00462487093426,-37.478475798310626"></path><path stroke="#4b4b4b" distance="30" stroke-width="1" d="M78.74034045710573,39.23411527745578
    A34.82191016552295,34.82191016552295 0 0,1 43.96102303300427,40.955889678863485"></path><path stroke="#4b4b4b" distance="30" stroke-width="1" d="M-95.35222455010617,-12.82878068686099
    A48.3063449674396,48.3063449674396 0 0,1 -107.87397213508957,33.82643125704984"></path><path stroke="#4b4b4b" distance="30" stroke-width="1" d="M131.18602832898404,-49.75247727526324
    A63.025312301270326,63.025312301270326 0 0,1 193.00462487093426,-37.478475798310626"></path></g><g fill="currentColor" stroke-linecap="round"><g transform="translate(150.14715880014327,-29.162551783380007)"><path d="M8.444016491289505,0A8.444016491289505,8.444016491289505,0,1,1,-8.444016491289505,0A8.444016491289505,8.444016491289505,0,1,1,8.444016491289505,0" stroke="#4b4b4b" fill="rgb(110, 64, 170)" stroke-width="1" fill-opacity="1"></path></g><g transform="translate(-28.941349330554363,158.68862746660298)"><path d="M2.5231325220201604,0A2.5231325220201604,2.5231325220201604,0,1,1,-2.5231325220201604,0A2.5231325220201604,2.5231325220201604,0,1,1,2.5231325220201604,0" stroke="#4b4b4b" fill="rgb(110, 64, 170)" stroke-width="1" fill-opacity="1"></path></g><g transform="translate(-9.90197473110544,-83.64769836476316)"><path d="M2.5231325220201604,0A2.5231325220201604,2.5231325220201604,0,1,1,-2.5231325220201604,0A2.5231325220201604,2.5231325220201604,0,1,1,2.5231325220201604,0" stroke="#4b4b4b" fill="rgb(110, 64, 170)" stroke-width="1" fill-opacity="1"></path></g><g transform="translate(-65.43250256833166,10.588210588756452)"><path d="M10.704744696916627,0A10.704744696916627,10.704744696916627,0,1,1,-10.704744696916627,0A10.704744696916627,10.704744696916627,0,1,1,10.704744696916627,0" stroke="#4b4b4b" fill="rgb(110, 64, 170)" stroke-width="1" fill-opacity="1"></path></g><g transform="translate(-72.26255426536427,-20.212305885403353)"><path d="M10.704744696916627,0A10.704744696916627,10.704744696916627,0,1,1,-10.704744696916627,0A10.704744696916627,10.704744696916627,0,1,1,10.704744696916627,0" stroke="#4b4b4b" fill="rgb(110, 64, 170)" stroke-width="1" fill-opacity="1"></path></g><g transform="translate(30.30639141810752,-127.81550652076862)"><path d="M5.292567428401227,0A5.292567428401227,5.292567428401227,0,1,1,-5.292567428401227,0A5.292567428401227,5.292567428401227,0,1,1,5.292567428401227,0" stroke="#4b4b4b" fill="rgb(175, 240, 91)" stroke-width="1" fill-opacity="1"></path></g><g transform="translate(19.81915151900411,187.23529596765297)"><path d="M2.5231325220201604,0A2.5231325220201604,2.5231325220201604,0,1,1,-2.5231325220201604,0A2.5231325220201604,2.5231325220201604,0,1,1,2.5231325220201604,0" stroke="#4b4b4b" fill="rgb(110, 64, 170)" stroke-width="1" fill-opacity="1"></path></g><g transform="translate(-71.97188875721568,-101.44587919355631)"><path d="M2.5231325220201604,0A2.5231325220201604,2.5231325220201604,0,1,1,-2.5231325220201604,0A2.5231325220201604,2.5231325220201604,0,1,1,2.5231325220201604,0" stroke="#4b4b4b" fill="rgb(110, 64, 170)" stroke-width="1" fill-opacity="1"></path></g><g transform="translate(48.64734082433152,-24.352211503247954)"><path d="M2.5231325220201604,0A2.5231325220201604,2.5231325220201604,0,1,1,-2.5231325220201604,0A2.5231325220201604,2.5231325220201604,0,1,1,2.5231325220201604,0" stroke="#4b4b4b" fill="rgb(110, 64, 170)" stroke-width="1" fill-opacity="1"></path></g><g transform="translate(-105.83187295419484,9.22164177934643)"><path d="M10.704744696916627,0A10.704744696916627,10.704744696916627,0,1,1,-10.704744696916627,0A10.704744696916627,10.704744696916627,0,1,1,10.704744696916627,0" stroke="#4b4b4b" fill="rgb(175, 240, 91)" stroke-width="1" fill-opacity="1"></path></g><g transform="translate(60.756252207885865,-147.67866999297343)"><path d="M5.292567428401227,0A5.292567428401227,5.292567428401227,0,1,1,-5.292567428401227,0A5.292567428401227,5.292567428401227,0,1,1,5.292567428401227,0" stroke="#4b4b4b" fill="rgb(110, 64, 170)" stroke-width="1" fill-opacity="1"></path></g><g transform="translate(3.125344458330029,129.19108297291154)"><path d="M2.5231325220201604,0A2.5231325220201604,2.5231325220201604,0,1,1,-2.5231325220201604,0A2.5231325220201604,2.5231325220201604,0,1,1,2.5231325220201604,0" stroke="#4b4b4b" fill="rgb(110, 64, 170)" stroke-width="1" fill-opacity="1"></path></g><g transform="translate(-47.56680808189474,-14.684737109451106)"><path d="M10.704744696916627,0A10.704744696916627,10.704744696916627,0,1,1,-10.704744696916627,0A10.704744696916627,10.704744696916627,0,1,1,10.704744696916627,0" stroke="#4b4b4b" fill="rgb(175, 240, 91)" stroke-width="1" fill-opacity="1"></path></g><g transform="translate(41.009241644915335,-67.49403780544354)"><path d="M2.5231325220201604,0A2.5231325220201604,2.5231325220201604,0,1,1,-2.5231325220201604,0A2.5231325220201604,2.5231325220201604,0,1,1,2.5231325220201604,0" stroke="#4b4b4b" fill="rgb(175, 240, 91)" stroke-width="1" fill-opacity="1"></path></g><g transform="translate(-68.62025287686252,191.01640235608386)"><path d="M2.5231325220201604,0A2.5231325220201604,2.5231325220201604,0,1,1,-2.5231325220201604,0A2.5231325220201604,2.5231325220201604,0,1,1,2.5231325220201604,0" stroke="#4b4b4b" fill="rgb(110, 64, 170)" stroke-width="1" fill-opacity="1"></path></g><g transform="translate(-34.07798825510654,-132.79786541797242)"><path d="M2.5231325220201604,0A2.5231325220201604,2.5231325220201604,0,1,1,-2.5231325220201604,0A2.5231325220201604,2.5231325220201604,0,1,1,2.5231325220201604,0" stroke="#4b4b4b" fill="rgb(110, 64, 170)" stroke-width="1" fill-opacity="1"></path></g><g transform="translate(151.11462309539056,8.887091902723103)"><path d="M8.444016491289505,0A8.444016491289505,8.444016491289505,0,1,1,-8.444016491289505,0A8.444016491289505,8.444016491289505,0,1,1,8.444016491289505,0" stroke="#4b4b4b" fill="rgb(175, 240, 91)" stroke-width="1" fill-opacity="1"></path></g><g transform="translate(-203.42953491003027,4.458087818790568)"><path d="M2.5231325220201604,0A2.5231325220201604,2.5231325220201604,0,1,1,-2.5231325220201604,0A2.5231325220201604,2.5231325220201604,0,1,1,2.5231325220201604,0" stroke="#4b4b4b" fill="rgb(110, 64, 170)" stroke-width="1" fill-opacity="1"></path></g><g transform="translate(88.35241549279475,-100.38210720245118)"><path d="M2.5231325220201604,0A2.5231325220201604,2.5231325220201604,0,1,1,-2.5231325220201604,0A2.5231325220201604,2.5231325220201604,0,1,1,2.5231325220201604,0" stroke="#4b4b4b" fill="rgb(110, 64, 170)" stroke-width="1" fill-opacity="1"></path></g><g transform="translate(38.12064479151004,77.9000902813549)"><path d="M5.292567428401227,0A5.292567428401227,5.292567428401227,0,1,1,-5.292567428401227,0A5.292567428401227,5.292567428401227,0,1,1,5.292567428401227,0" stroke="#4b4b4b" fill="rgb(110, 64, 170)" stroke-width="1" fill-opacity="1"></path></g><g transform="translate(-120.79030607419476,-95.56613756729827)"><path d="M2.5231325220201604,0A2.5231325220201604,2.5231325220201604,0,1,1,-2.5231325220201604,0A2.5231325220201604,2.5231325220201604,0,1,1,2.5231325220201604,0" stroke="#4b4b4b" fill="rgb(175, 240, 91)" stroke-width="1" fill-opacity="1"></path></g><g transform="translate(74.43009235540794,75.8814629640801)"><path d="M5.292567428401227,0A5.292567428401227,5.292567428401227,0,1,1,-5.292567428401227,0A5.292567428401227,5.292567428401227,0,1,1,5.292567428401227,0" stroke="#4b4b4b" fill="rgb(175, 240, 91)" stroke-width="1" fill-opacity="1"></path></g><g transform="translate(-157.21093488115946,100.58665823290808)"><path d="M2.5231325220201604,0A2.5231325220201604,2.5231325220201604,0,1,1,-2.5231325220201604,0A2.5231325220201604,2.5231325220201604,0,1,1,2.5231325220201604,0" stroke="#4b4b4b" fill="rgb(110, 64, 170)" stroke-width="1" fill-opacity="1"></path></g><g transform="translate(122.97865727334127,-229.34515289503804)"><path d="M2.5231325220201604,0A2.5231325220201604,2.5231325220201604,0,1,1,-2.5231325220201604,0A2.5231325220201604,2.5231325220201604,0,1,1,2.5231325220201604,0" stroke="#4b4b4b" fill="rgb(175, 240, 91)" stroke-width="1" fill-opacity="1"></path></g><g transform="translate(49.56660456498453,141.0285899320135)"><path d="M2.5231325220201604,0A2.5231325220201604,2.5231325220201604,0,1,1,-2.5231325220201604,0A2.5231325220201604,2.5231325220201604,0,1,1,2.5231325220201604,0" stroke="#4b4b4b" fill="rgb(110, 64, 170)" stroke-width="1" fill-opacity="1"></path></g><g transform="translate(-206.06412214488395,-43.55348076973852)"><path d="M2.5231325220201604,0A2.5231325220201604,2.5231325220201604,0,1,1,-2.5231325220201604,0A2.5231325220201604,2.5231325220201604,0,1,1,2.5231325220201604,0" stroke="#4b4b4b" fill="rgb(110, 64, 170)" stroke-width="1" fill-opacity="1"></path></g><g transform="translate(-42.79846925629256,50.78662876904709)"><path d="M10.704744696916627,0A10.704744696916627,10.704744696916627,0,1,1,-10.704744696916627,0A10.704744696916627,10.704744696916627,0,1,1,10.704744696916627,0" stroke="#4b4b4b" fill="rgb(110, 64, 170)" stroke-width="1" fill-opacity="1"></path></g><g transform="translate(-23.614149209490392,220.5843748041497)"><path d="M2.5231325220201604,0A2.5231325220201604,2.5231325220201604,0,1,1,-2.5231325220201604,0A2.5231325220201604,2.5231325220201604,0,1,1,2.5231325220201604,0" stroke="#4b4b4b" fill="rgb(110, 64, 170)" stroke-width="1" fill-opacity="1"></path></g><g transform="translate(-65.25290661502353,-172.90207793421072)"><path d="M2.5231325220201604,0A2.5231325220201604,2.5231325220201604,0,1,1,-2.5231325220201604,0A2.5231325220201604,2.5231325220201604,0,1,1,2.5231325220201604,0" stroke="#4b4b4b" fill="rgb(110, 64, 170)" stroke-width="1" fill-opacity="1"></path></g><g transform="translate(115.26273100918584,112.32657715072669)"><path d="M2.5231325220201604,0A2.5231325220201604,2.5231325220201604,0,1,1,-2.5231325220201604,0A2.5231325220201604,2.5231325220201604,0,1,1,2.5231325220201604,0" stroke="#4b4b4b" fill="rgb(175, 240, 91)" stroke-width="1" fill-opacity="1"></path></g><g transform="translate(-243.56400088441512,48.40685956096248)"><path d="M2.5231325220201604,0A2.5231325220201604,2.5231325220201604,0,1,1,-2.5231325220201604,0A2.5231325220201604,2.5231325220201604,0,1,1,2.5231325220201604,0" stroke="#4b4b4b" fill="rgb(110, 64, 170)" stroke-width="1" fill-opacity="1"></path></g><g transform="translate(103.73569809669611,-181.38215503571095)"><path d="M2.5231325220201604,0A2.5231325220201604,2.5231325220201604,0,1,1,-2.5231325220201604,0A2.5231325220201604,2.5231325220201604,0,1,1,2.5231325220201604,0" stroke="#4b4b4b" fill="rgb(110, 64, 170)" stroke-width="1" fill-opacity="1"></path></g><g transform="translate(75.806727354921,196.34871451800728)"><path d="M2.5231325220201604,0A2.5231325220201604,2.5231325220201604,0,1,1,-2.5231325220201604,0A2.5231325220201604,2.5231325220201604,0,1,1,2.5231325220201604,0" stroke="#4b4b4b" fill="rgb(175, 240, 91)" stroke-width="1" fill-opacity="1"></path></g><g transform="translate(-160.22347948602103,-56.30478716089102)"><path d="M2.5231325220201604,0A2.5231325220201604,2.5231325220201604,0,1,1,-2.5231325220201604,0A2.5231325220201604,2.5231325220201604,0,1,1,2.5231325220201604,0" stroke="#4b4b4b" fill="rgb(110, 64, 170)" stroke-width="1" fill-opacity="1"></path></g><g transform="translate(185.71720666275255,-0.2747335979738807)"><path d="M8.444016491289505,0A8.444016491289505,8.444016491289505,0,1,1,-8.444016491289505,0A8.444016491289505,8.444016491289505,0,1,1,8.444016491289505,0" stroke="#4b4b4b" fill="rgb(175, 240, 91)" stroke-width="1" fill-opacity="1"></path></g><g transform="translate(-78.60245383799635,132.93162996469496)"><path d="M2.5231325220201604,0A2.5231325220201604,2.5231325220201604,0,1,1,-2.5231325220201604,0A2.5231325220201604,2.5231325220201604,0,1,1,2.5231325220201604,0" stroke="#4b4b4b" fill="rgb(110, 64, 170)" stroke-width="1" fill-opacity="1"></path></g><g transform="translate(15.70688419998296,-228.16899984510817)"><path d="M2.5231325220201604,0A2.5231325220201604,2.5231325220201604,0,1,1,-2.5231325220201604,0A2.5231325220201604,2.5231325220201604,0,1,1,2.5231325220201604,0" stroke="#4b4b4b" fill="rgb(175, 240, 91)" stroke-width="1" fill-opacity="1"></path></g><g transform="translate(95.67205686566399,150.94295881864215)"><path d="M2.5231325220201604,0A2.5231325220201604,2.5231325220201604,0,1,1,-2.5231325220201604,0A2.5231325220201604,2.5231325220201604,0,1,1,2.5231325220201604,0" stroke="#4b4b4b" fill="rgb(110, 64, 170)" stroke-width="1" fill-opacity="1"></path></g><g transform="translate(-253.55517284649233,-31.92170355484646)"><path d="M2.5231325220201604,0A2.5231325220201604,2.5231325220201604,0,1,1,-2.5231325220201604,0A2.5231325220201604,2.5231325220201604,0,1,1,2.5231325220201604,0" stroke="#4b4b4b" fill="rgb(110, 64, 170)" stroke-width="1" fill-opacity="1"></path></g><g transform="translate(131.7052143258709,-127.75932993266208)"><path d="M2.5231325220201604,0A2.5231325220201604,2.5231325220201604,0,1,1,-2.5231325220201604,0A2.5231325220201604,2.5231325220201604,0,1,1,2.5231325220201604,0" stroke="#4b4b4b" fill="rgb(110, 64, 170)" stroke-width="1" fill-opacity="1"></path></g><g transform="translate(33.871733534573536,233.45004031408985)"><path d="M2.5231325220201604,0A2.5231325220201604,2.5231325220201604,0,1,1,-2.5231325220201604,0A2.5231325220201604,2.5231325220201604,0,1,1,2.5231325220201604,0" stroke="#4b4b4b" fill="rgb(175, 240, 91)" stroke-width="1" fill-opacity="1"></path></g><g transform="translate(-112.24155103453181,-144.24546232340285)"><path d="M2.5231325220201604,0A2.5231325220201604,2.5231325220201604,0,1,1,-2.5231325220201604,0A2.5231325220201604,2.5231325220201604,0,1,1,2.5231325220201604,0" stroke="#4b4b4b" fill="rgb(110, 64, 170)" stroke-width="1" fill-opacity="1"></path></g><g transform="translate(224.43493817358464,47.89187656433984)"><path d="M2.5231325220201604,0A2.5231325220201604,2.5231325220201604,0,1,1,-2.5231325220201604,0A2.5231325220201604,2.5231325220201604,0,1,1,2.5231325220201604,0" stroke="#4b4b4b" fill="rgb(175, 240, 91)" stroke-width="1" fill-opacity="1"></path></g><g transform="translate(-184.88039458328342,49.50428691916817)"><path d="M2.5231325220201604,0A2.5231325220201604,2.5231325220201604,0,1,1,-2.5231325220201604,0A2.5231325220201604,2.5231325220201604,0,1,1,2.5231325220201604,0" stroke="#4b4b4b" fill="rgb(175, 240, 91)" stroke-width="1" fill-opacity="1"></path></g><g transform="translate(-31.343392765462923,4.951382536887671)"><path d="M10.704744696916627,0A10.704744696916627,10.704744696916627,0,1,1,-10.704744696916627,0A10.704744696916627,10.704744696916627,0,1,1,10.704744696916627,0" stroke="#4b4b4b" fill="rgb(110, 64, 170)" stroke-width="1" fill-opacity="1"></path></g><g transform="translate(124.5450619988416,-14.246386459298746)"><path d="M8.444016491289505,0A8.444016491289505,8.444016491289505,0,1,1,-8.444016491289505,0A8.444016491289505,8.444016491289505,0,1,1,8.444016491289505,0" stroke="#4b4b4b" fill="rgb(110, 64, 170)" stroke-width="1" fill-opacity="1"></path></g><g transform="translate(-192.38285733556066,-95.58563651010773)"><path d="M2.5231325220201604,0A2.5231325220201604,2.5231325220201604,0,1,1,-2.5231325220201604,0A2.5231325220201604,2.5231325220201604,0,1,1,2.5231325220201604,0" stroke="#4b4b4b" fill="rgb(110, 64, 170)" stroke-width="1" fill-opacity="1"></path></g><g transform="translate(238.1762467067623,-118.186389179984)"><path d="M2.5231325220201604,0A2.5231325220201604,2.5231325220201604,0,1,1,-2.5231325220201604,0A2.5231325220201604,2.5231325220201604,0,1,1,2.5231325220201604,0" stroke="#4b4b4b" fill="rgb(110, 64, 170)" stroke-width="1" fill-opacity="1"></path></g><g transform="translate(-88.93551781003464,239.86436866778382)"><path d="M2.5231325220201604,0A2.5231325220201604,2.5231325220201604,0,1,1,-2.5231325220201604,0A2.5231325220201604,2.5231325220201604,0,1,1,2.5231325220201604,0" stroke="#4b4b4b" fill="rgb(110, 64, 170)" stroke-width="1" fill-opacity="1"></path></g><g transform="translate(-25.87840209327517,-202.70794492986488)"><path d="M2.5231325220201604,0A2.5231325220201604,2.5231325220201604,0,1,1,-2.5231325220201604,0A2.5231325220201604,2.5231325220201604,0,1,1,2.5231325220201604,0" stroke="#4b4b4b" fill="rgb(110, 64, 170)" stroke-width="1" fill-opacity="1"></path></g><g transform="translate(188.01007947161682,89.81337162480406)"><path d="M2.5231325220201604,0A2.5231325220201604,2.5231325220201604,0,1,1,-2.5231325220201604,0A2.5231325220201604,2.5231325220201604,0,1,1,2.5231325220201604,0" stroke="#4b4b4b" fill="rgb(110, 64, 170)" stroke-width="1" fill-opacity="1"></path></g><g transform="translate(-205.87163069146334,92.79571320654017)"><path d="M2.5231325220201604,0A2.5231325220201604,2.5231325220201604,0,1,1,-2.5231325220201604,0A2.5231325220201604,2.5231325220201604,0,1,1,2.5231325220201604,0" stroke="#4b4b4b" fill="rgb(110, 64, 170)" stroke-width="1" fill-opacity="1"></path></g><g transform="translate(168.87727770048923,-21.37257752918667)"><path d="M8.444016491289505,0A8.444016491289505,8.444016491289505,0,1,1,-8.444016491289505,0A8.444016491289505,8.444016491289505,0,1,1,8.444016491289505,0" stroke="#4b4b4b" fill="rgb(175, 240, 91)" stroke-width="1" fill-opacity="1"></path></g><g transform="translate(122.06234011607712,233.30551682687573)"><path d="M2.5231325220201604,0A2.5231325220201604,2.5231325220201604,0,1,1,-2.5231325220201604,0A2.5231325220201604,2.5231325220201604,0,1,1,2.5231325220201604,0" stroke="#4b4b4b" fill="rgb(175, 240, 91)" stroke-width="1" fill-opacity="1"></path></g><g transform="translate(-164.6392659034971,-183.4600430140343)"><path d="M2.5231325220201604,0A2.5231325220201604,2.5231325220201604,0,1,1,-2.5231325220201604,0A2.5231325220201604,2.5231325220201604,0,1,1,2.5231325220201604,0" stroke="#4b4b4b" fill="rgb(175, 240, 91)" stroke-width="1" fill-opacity="1"></path></g><g transform="translate(-75.6140759330929,29.526689122879908)"><path d="M10.704744696916627,0A10.704744696916627,10.704744696916627,0,1,1,-10.704744696916627,0A10.704744696916627,10.704744696916627,0,1,1,10.704744696916627,0" stroke="#4b4b4b" fill="rgb(175, 240, 91)" stroke-width="1" fill-opacity="1"></path></g><g transform="translate(-65.56929548991425,60.04352389082185)"><path d="M10.704744696916627,0A10.704744696916627,10.704744696916627,0,1,1,-10.704744696916627,0A10.704744696916627,10.704744696916627,0,1,1,10.704744696916627,0" stroke="#4b4b4b" fill="rgb(175, 240, 91)" stroke-width="1" fill-opacity="1"></path></g><g transform="translate(42.56687990199143,-178.84575526323295)"><path d="M5.292567428401227,0A5.292567428401227,5.292567428401227,0,1,1,-5.292567428401227,0A5.292567428401227,5.292567428401227,0,1,1,5.292567428401227,0" stroke="#4b4b4b" fill="rgb(175, 240, 91)" stroke-width="1" fill-opacity="1"></path></g><g transform="translate(165.3110295590354,137.24534328671885)"><path d="M2.5231325220201604,0A2.5231325220201604,2.5231325220201604,0,1,1,-2.5231325220201604,0A2.5231325220201604,2.5231325220201604,0,1,1,2.5231325220201604,0" stroke="#4b4b4b" fill="rgb(175, 240, 91)" stroke-width="1" fill-opacity="1"></path></g><g transform="translate(-234.6268711802262,-124.78809822496798)"><path d="M2.5231325220201604,0A2.5231325220201604,2.5231325220201604,0,1,1,-2.5231325220201604,0A2.5231325220201604,2.5231325220201604,0,1,1,2.5231325220201604,0" stroke="#4b4b4b" fill="rgb(175, 240, 91)" stroke-width="1" fill-opacity="1"></path></g><g transform="translate(190.27651132626895,-119.34724555971998)"><path d="M2.5231325220201604,0A2.5231325220201604,2.5231325220201604,0,1,1,-2.5231325220201604,0A2.5231325220201604,2.5231325220201604,0,1,1,2.5231325220201604,0" stroke="#4b4b4b" fill="rgb(175, 240, 91)" stroke-width="1" fill-opacity="1"></path></g><g transform="translate(-34.24087616699187,28.764070948224738)"><path d="M10.704744696916627,0A10.704744696916627,10.704744696916627,0,1,1,-10.704744696916627,0A10.704744696916627,10.704744696916627,0,1,1,10.704744696916627,0" stroke="#4b4b4b" fill="rgb(175, 240, 91)" stroke-width="1" fill-opacity="1"></path></g><g transform="translate(11.82264742634854,-158.92946680240917)"><path d="M5.292567428401227,0A5.292567428401227,5.292567428401227,0,1,1,-5.292567428401227,0A5.292567428401227,5.292567428401227,0,1,1,5.292567428401227,0" stroke="#4b4b4b" fill="rgb(175, 240, 91)" stroke-width="1" fill-opacity="1"></path></g><g transform="translate(141.3485817847979,75.40285907320902)"><path d="M2.5231325220201604,0A2.5231325220201604,2.5231325220201604,0,1,1,-2.5231325220201604,0A2.5231325220201604,2.5231325220201604,0,1,1,2.5231325220201604,0" stroke="#4b4b4b" fill="rgb(175, 240, 91)" stroke-width="1" fill-opacity="1"></path></g><g transform="translate(-91.3022437463892,54.82287857668023)"><path d="M10.704744696916627,0A10.704744696916627,10.704744696916627,0,1,1,-10.704744696916627,0A10.704744696916627,10.704744696916627,0,1,1,10.704744696916627,0" stroke="#4b4b4b" fill="rgb(175, 240, 91)" stroke-width="1" fill-opacity="1"></path></g><g transform="translate(166.3649844671817,-212.55711235147785)"><path d="M2.5231325220201604,0A2.5231325220201604,2.5231325220201604,0,1,1,-2.5231325220201604,0A2.5231325220201604,2.5231325220201604,0,1,1,2.5231325220201604,0" stroke="#4b4b4b" fill="rgb(175, 240, 91)" stroke-width="1" fill-opacity="1"></path></g><g transform="translate(132.02186395390075,182.8641394465821)"><path d="M2.5231325220201604,0A2.5231325220201604,2.5231325220201604,0,1,1,-2.5231325220201604,0A2.5231325220201604,2.5231325220201604,0,1,1,2.5231325220201604,0" stroke="#4b4b4b" fill="rgb(175, 240, 91)" stroke-width="1" fill-opacity="1"></path></g><g transform="translate(-162.12948125248153,-131.15733396767135)"><path d="M2.5231325220201604,0A2.5231325220201604,2.5231325220201604,0,1,1,-2.5231325220201604,0A2.5231325220201604,2.5231325220201604,0,1,1,2.5231325220201604,0" stroke="#4b4b4b" fill="rgb(175, 240, 91)" stroke-width="1" fill-opacity="1"></path></g><g transform="translate(165.0299085801036,-60.039822077170626)"><path d="M8.444016491289505,0A8.444016491289505,8.444016491289505,0,1,1,-8.444016491289505,0A8.444016491289505,8.444016491289505,0,1,1,8.444016491289505,0" stroke="#4b4b4b" fill="rgb(175, 240, 91)" stroke-width="1" fill-opacity="1"></path></g><g transform="translate(-113.00147250303264,153.37619844830914)"><path d="M2.5231325220201604,0A2.5231325220201604,2.5231325220201604,0,1,1,-2.5231325220201604,0A2.5231325220201604,2.5231325220201604,0,1,1,2.5231325220201604,0" stroke="#4b4b4b" fill="rgb(175, 240, 91)" stroke-width="1" fill-opacity="1"></path></g><g transform="translate(-17.725355161491503,-266.41066390908134)"><path d="M2.5231325220201604,0A2.5231325220201604,2.5231325220201604,0,1,1,-2.5231325220201604,0A2.5231325220201604,2.5231325220201604,0,1,1,2.5231325220201604,0" stroke="#4b4b4b" fill="rgb(175, 240, 91)" stroke-width="1" fill-opacity="1"></path></g><g transform="translate(78.74034045710573,39.23411527745578)"><path d="M5.292567428401227,0A5.292567428401227,5.292567428401227,0,1,1,-5.292567428401227,0A5.292567428401227,5.292567428401227,0,1,1,5.292567428401227,0" stroke="#4b4b4b" fill="rgb(175, 240, 91)" stroke-width="1" fill-opacity="1"></path></g><g transform="translate(-268.22227825340815,9.614295417667194)"><path d="M2.5231325220201604,0A2.5231325220201604,2.5231325220201604,0,1,1,-2.5231325220201604,0A2.5231325220201604,2.5231325220201604,0,1,1,2.5231325220201604,0" stroke="#4b4b4b" fill="rgb(175, 240, 91)" stroke-width="1" fill-opacity="1"></path></g><g transform="translate(43.96102303300427,40.955889678863485)"><path d="M5.292567428401227,0A5.292567428401227,5.292567428401227,0,1,1,-5.292567428401227,0A5.292567428401227,5.292567428401227,0,1,1,5.292567428401227,0" stroke="#4b4b4b" fill="rgb(175, 240, 91)" stroke-width="1" fill-opacity="1"></path></g><g transform="translate(8.770516399838208,267.80161444618784)"><path d="M2.5231325220201604,0A2.5231325220201604,2.5231325220201604,0,1,1,-2.5231325220201604,0A2.5231325220201604,2.5231325220201604,0,1,1,2.5231325220201604,0" stroke="#4b4b4b" fill="rgb(175, 240, 91)" stroke-width="1" fill-opacity="1"></path></g><g transform="translate(-108.9817332934374,-191.30867002021668)"><path d="M2.5231325220201604,0A2.5231325220201604,2.5231325220201604,0,1,1,-2.5231325220201604,0A2.5231325220201604,2.5231325220201604,0,1,1,2.5231325220201604,0" stroke="#4b4b4b" fill="rgb(175, 240, 91)" stroke-width="1" fill-opacity="1"></path></g><g transform="translate(266.8086891049936,23.87740285154095)"><path d="M2.5231325220201604,0A2.5231325220201604,2.5231325220201604,0,1,1,-2.5231325220201604,0A2.5231325220201604,2.5231325220201604,0,1,1,2.5231325220201604,0" stroke="#4b4b4b" fill="rgb(175, 240, 91)" stroke-width="1" fill-opacity="1"></path></g><g transform="translate(-166.87214195107555,145.56688619214714)"><path d="M2.5231325220201604,0A2.5231325220201604,2.5231325220201604,0,1,1,-2.5231325220201604,0A2.5231325220201604,2.5231325220201604,0,1,1,2.5231325220201604,0" stroke="#4b4b4b" fill="rgb(175, 240, 91)" stroke-width="1" fill-opacity="1"></path></g><g transform="translate(-95.35222455010617,-12.82878068686099)"><path d="M10.704744696916627,0A10.704744696916627,10.704744696916627,0,1,1,-10.704744696916627,0A10.704744696916627,10.704744696916627,0,1,1,10.704744696916627,0" stroke="#4b4b4b" fill="rgb(175, 240, 91)" stroke-width="1" fill-opacity="1"></path></g><g transform="translate(206.0728431946964,168.31796083257)"><path d="M2.5231325220201604,0A2.5231325220201604,2.5231325220201604,0,1,1,-2.5231325220201604,0A2.5231325220201604,2.5231325220201604,0,1,1,2.5231325220201604,0" stroke="#4b4b4b" fill="rgb(175, 240, 91)" stroke-width="1" fill-opacity="1"></path></g><g transform="translate(-208.55008153305604,-163.52172543882608)"><path d="M2.5231325220201604,0A2.5231325220201604,2.5231325220201604,0,1,1,-2.5231325220201604,0A2.5231325220201604,2.5231325220201604,0,1,1,2.5231325220201604,0" stroke="#4b4b4b" fill="rgb(175, 240, 91)" stroke-width="1" fill-opacity="1"></path></g><g transform="translate(209.23337122339467,-167.38057200736662)"><path d="M2.5231325220201604,0A2.5231325220201604,2.5231325220201604,0,1,1,-2.5231325220201604,0A2.5231325220201604,2.5231325220201604,0,1,1,2.5231325220201604,0" stroke="#4b4b4b" fill="rgb(175, 240, 91)" stroke-width="1" fill-opacity="1"></path></g><g transform="translate(-137.2415339355116,232.39660900000732)"><path d="M2.5231325220201604,0A2.5231325220201604,2.5231325220201604,0,1,1,-2.5231325220201604,0A2.5231325220201604,2.5231325220201604,0,1,1,2.5231325220201604,0" stroke="#4b4b4b" fill="rgb(175, 240, 91)" stroke-width="1" fill-opacity="1"></path></g><g transform="translate(-58.40603864135446,-241.1889712425088)"><path d="M2.5231325220201604,0A2.5231325220201604,2.5231325220201604,0,1,1,-2.5231325220201604,0A2.5231325220201604,2.5231325220201604,0,1,1,2.5231325220201604,0" stroke="#4b4b4b" fill="rgb(175, 240, 91)" stroke-width="1" fill-opacity="1"></path></g><g transform="translate(249.04183068772417,83.57215418504538)"><path d="M2.5231325220201604,0A2.5231325220201604,2.5231325220201604,0,1,1,-2.5231325220201604,0A2.5231325220201604,2.5231325220201604,0,1,1,2.5231325220201604,0" stroke="#4b4b4b" fill="rgb(175, 240, 91)" stroke-width="1" fill-opacity="1"></path></g><g transform="translate(-252.39116577768166,96.15542127253318)"><path d="M2.5231325220201604,0A2.5231325220201604,2.5231325220201604,0,1,1,-2.5231325220201604,0A2.5231325220201604,2.5231325220201604,0,1,1,2.5231325220201604,0" stroke="#4b4b4b" fill="rgb(175, 240, 91)" stroke-width="1" fill-opacity="1"></path></g><g transform="translate(131.18602832898404,-49.75247727526324)"><path d="M8.444016491289505,0A8.444016491289505,8.444016491289505,0,1,1,-8.444016491289505,0A8.444016491289505,8.444016491289505,0,1,1,8.444016491289505,0" stroke="#4b4b4b" fill="rgb(175, 240, 91)" stroke-width="1" fill-opacity="1"></path></g><g transform="translate(78.09429491442847,253.88017798401037)"><path d="M2.5231325220201604,0A2.5231325220201604,2.5231325220201604,0,1,1,-2.5231325220201604,0A2.5231325220201604,2.5231325220201604,0,1,1,2.5231325220201604,0" stroke="#4b4b4b" fill="rgb(175, 240, 91)" stroke-width="1" fill-opacity="1"></path></g><g transform="translate(-101.18831202342957,-242.2139258764178)"><path d="M2.5231325220201604,0A2.5231325220201604,2.5231325220201604,0,1,1,-2.5231325220201604,0A2.5231325220201604,2.5231325220201604,0,1,1,2.5231325220201604,0" stroke="#4b4b4b" fill="rgb(175, 240, 91)" stroke-width="1" fill-opacity="1"></path></g><g transform="translate(266.46081610718386,-26.734003042590707)"><path d="M2.5231325220201604,0A2.5231325220201604,2.5231325220201604,0,1,1,-2.5231325220201604,0A2.5231325220201604,2.5231325220201604,0,1,1,2.5231325220201604,0" stroke="#4b4b4b" fill="rgb(175, 240, 91)" stroke-width="1" fill-opacity="1"></path></g><g transform="translate(-186.84729343347348,189.14252797573508)"><path d="M2.5231325220201604,0A2.5231325220201604,2.5231325220201604,0,1,1,-2.5231325220201604,0A2.5231325220201604,2.5231325220201604,0,1,1,2.5231325220201604,0" stroke="#4b4b4b" fill="rgb(175, 240, 91)" stroke-width="1" fill-opacity="1"></path></g><g transform="translate(42.897539823288646,-266.9550112912687)"><path d="M2.5231325220201604,0A2.5231325220201604,2.5231325220201604,0,1,1,-2.5231325220201604,0A2.5231325220201604,2.5231325220201604,0,1,1,2.5231325220201604,0" stroke="#4b4b4b" fill="rgb(175, 240, 91)" stroke-width="1" fill-opacity="1"></path></g><g transform="translate(229.18950995784374,126.42193525464906)"><path d="M2.5231325220201604,0A2.5231325220201604,2.5231325220201604,0,1,1,-2.5231325220201604,0A2.5231325220201604,2.5231325220201604,0,1,1,2.5231325220201604,0" stroke="#4b4b4b" fill="rgb(175, 240, 91)" stroke-width="1" fill-opacity="1"></path></g><g transform="translate(-251.00357503668135,-77.63285710612989)"><path d="M2.5231325220201604,0A2.5231325220201604,2.5231325220201604,0,1,1,-2.5231325220201604,0A2.5231325220201604,2.5231325220201604,0,1,1,2.5231325220201604,0" stroke="#4b4b4b" fill="rgb(175, 240, 91)" stroke-width="1" fill-opacity="1"></path></g><g transform="translate(156.1942226327157,-167.8662853639478)"><path d="M2.5231325220201604,0A2.5231325220201604,2.5231325220201604,0,1,1,-2.5231325220201604,0A2.5231325220201604,2.5231325220201604,0,1,1,2.5231325220201604,0" stroke="#4b4b4b" fill="rgb(175, 240, 91)" stroke-width="1" fill-opacity="1"></path></g><g transform="translate(-50.157060254693135,262.22416808509416)"><path d="M2.5231325220201604,0A2.5231325220201604,2.5231325220201604,0,1,1,-2.5231325220201604,0A2.5231325220201604,2.5231325220201604,0,1,1,2.5231325220201604,0" stroke="#4b4b4b" fill="rgb(175, 240, 91)" stroke-width="1" fill-opacity="1"></path></g><g transform="translate(-107.87397213508957,33.82643125704984)"><path d="M10.704744696916627,0A10.704744696916627,10.704744696916627,0,1,1,-10.704744696916627,0A10.704744696916627,10.704744696916627,0,1,1,10.704744696916627,0" stroke="#4b4b4b" fill="rgb(175, 240, 91)" stroke-width="1" fill-opacity="1"></path></g><g transform="translate(193.00462487093426,-37.478475798310626)"><path d="M8.444016491289505,0A8.444016491289505,8.444016491289505,0,1,1,-8.444016491289505,0A8.444016491289505,8.444016491289505,0,1,1,8.444016491289505,0" stroke="#4b4b4b" fill="rgb(175, 240, 91)" stroke-width="1" fill-opacity="1"></path></g><g transform="translate(-223.98094826681586,144.53819648514573)"><path d="M2.5231325220201604,0A2.5231325220201604,2.5231325220201604,0,1,1,-2.5231325220201604,0A2.5231325220201604,2.5231325220201604,0,1,1,2.5231325220201604,0" stroke="#4b4b4b" fill="rgb(175, 240, 91)" stroke-width="1" fill-opacity="1"></path></g><g transform="translate(80.40106285642202,-239.56311019442217)"><path d="M2.5231325220201604,0A2.5231325220201604,2.5231325220201604,0,1,1,-2.5231325220201604,0A2.5231325220201604,2.5231325220201604,0,1,1,2.5231325220201604,0" stroke="#4b4b4b" fill="rgb(175, 240, 91)" stroke-width="1" fill-opacity="1"></path></g><g transform="translate(172.72364593524074,204.61444185948065)"><path d="M2.5231325220201604,0A2.5231325220201604,2.5231325220201604,0,1,1,-2.5231325220201604,0A2.5231325220201604,2.5231325220201604,0,1,1,2.5231325220201604,0" stroke="#4b4b4b" fill="rgb(175, 240, 91)" stroke-width="1" fill-opacity="1"></path></g><g transform="translate(-147.7246088825907,-225.60177152618772)"><path d="M2.5231325220201604,0A2.5231325220201604,2.5231325220201604,0,1,1,-2.5231325220201604,0A2.5231325220201604,2.5231325220201604,0,1,1,2.5231325220201604,0" stroke="#4b4b4b" fill="rgb(175, 240, 91)" stroke-width="1" fill-opacity="1"></path></g><g transform="translate(249.76215858282131,-73.11986211326179)"><path d="M2.5231325220201604,0A2.5231325220201604,2.5231325220201604,0,1,1,-2.5231325220201604,0A2.5231325220201604,2.5231325220201604,0,1,1,2.5231325220201604,0" stroke="#4b4b4b" fill="rgb(175, 240, 91)" stroke-width="1" fill-opacity="1"></path></g><g transform="translate(-133.44768440331475,189.80183031902408)"><path d="M2.5231325220201604,0A2.5231325220201604,2.5231325220201604,0,1,1,-2.5231325220201604,0A2.5231325220201604,2.5231325220201604,0,1,1,2.5231325220201604,0" stroke="#4b4b4b" fill="rgb(175, 240, 91)" stroke-width="1" fill-opacity="1"></path></g></g></g></g><g transform="translate(650.2770385742188,92.42141723632812)" text-anchor="start" class=""><text class="legend-title-text-color-categories-of-nodes-0" font-size="25" fill="#000000" font-weight="bold" text-anchor="start" font-style="normal" x="0" y="-20" xml:space="preserve"><tspan>PGHs</tspan></text><g transform="translate(0,0)"><g transform="translate(0,0)"><g><path d="M7.978845608028654,0A7.978845608028654,7.978845608028654,0,1,1,-7.978845608028654,0A7.978845608028654,7.978845608028654,0,1,1,7.978845608028654,0" fill="rgb(110, 64, 170)" stroke="#000000" stroke-width="0" class="legend-symbol-path-color-categories-of-nodes-0" fill-opacity="1" stroke-opacity="1"></path></g><text class="legend-item-text-color-categories-of-nodes-0" dy="0.3em" font-size="20" fill="#000000" font-weight="normal" text-anchor="start" font-style="normal" x="20" xml:space="preserve">Possess</text></g><g transform="translate(0,30)"><g><path d="M7.978845608028654,0A7.978845608028654,7.978845608028654,0,1,1,-7.978845608028654,0A7.978845608028654,7.978845608028654,0,1,1,7.978845608028654,0" fill="rgb(175, 240, 91)" stroke="#000000" stroke-width="0" class="legend-symbol-path-color-categories-of-nodes-0" fill-opacity="1" stroke-opacity="1"></path></g><text class="legend-item-text-color-categories-of-nodes-0" dy="0.3em" font-size="20" fill="#000000" font-weight="normal" text-anchor="start" font-style="normal" x="20" xml:space="preserve">Non-possess</text></g></g></g></g><defs><marker id="arrow-test" viewBox="0 -5 10 10" refX="15" refY="-0.5" markerWidth="6" markerHeight="6" orient="auto"><path fill="#4b4b4b" d="M0,-5L10,0L0,5"></path></marker></defs><defs><marker id="arrow-test" viewBox="0 -5 10 10" refX="15" refY="-0.5" markerWidth="6" markerHeight="6" orient="auto"><path fill="#4b4b4b" d="M0,-5L10,0L0,5"></path></marker></defs><defs><marker id="arrow-test" viewBox="0 -5 10 10" refX="15" refY="-0.5" markerWidth="6" markerHeight="6" orient="auto"><path fill="#4b4b4b" d="M0,-5L10,0L0,5"></path></marker></defs><defs><marker id="arrow-test" viewBox="0 -5 10 10" refX="15" refY="-0.5" markerWidth="6" markerHeight="6" orient="auto"><path fill="#4b4b4b" d="M0,-5L10,0L0,5"></path></marker></defs><defs><marker id="arrow-test" viewBox="0 -5 10 10" refX="15" refY="-0.5" markerWidth="6" markerHeight="6" orient="auto"><path fill="#4b4b4b" d="M0,-5L10,0L0,5"></path></marker></defs><defs><marker id="arrow-test" viewBox="0 -5 10 10" refX="15" refY="-0.5" markerWidth="6" markerHeight="6" orient="auto"><path fill="#4b4b4b" d="M0,-5L10,0L0,5"></path></marker></defs><defs><marker id="arrow-test" viewBox="0 -5 10 10" refX="15" refY="-0.5" markerWidth="6" markerHeight="6" orient="auto"><path fill="#4b4b4b" d="M0,-5L10,0L0,5"></path></marker></defs><defs><marker id="arrow-test" viewBox="0 -5 10 10" refX="15" refY="-0.5" markerWidth="6" markerHeight="6" orient="auto"><path fill="#4b4b4b" d="M0,-5L10,0L0,5"></path></marker></defs><defs><marker id="arrow-test" viewBox="0 -5 10 10" refX="15" refY="-0.5" markerWidth="6" markerHeight="6" orient="auto"><path fill="#4b4b4b" d="M0,-5L10,0L0,5"></path></marker></defs><defs><marker id="arrow-test" viewBox="0 -5 10 10" refX="15" refY="-0.5" markerWidth="6" markerHeight="6" orient="auto"><path fill="#4b4b4b" d="M0,-5L10,0L0,5"></path></marker></defs><defs><marker id="arrow-test" viewBox="0 -5 10 10" refX="15" refY="-0.5" markerWidth="6" markerHeight="6" orient="auto"><path fill="#4b4b4b" d="M0,-5L10,0L0,5"></path></marker></defs><defs><marker id="arrow-test" viewBox="0 -5 10 10" refX="15" refY="-0.5" markerWidth="6" markerHeight="6" orient="auto"><path fill="#4b4b4b" d="M0,-5L10,0L0,5"></path></marker></defs><defs><marker id="arrow-test" viewBox="0 -5 10 10" refX="15" refY="-0.5" markerWidth="6" markerHeight="6" orient="auto"><path fill="#4b4b4b" d="M0,-5L10,0L0,5"></path></marker></defs><defs><marker id="arrow-test" viewBox="0 -5 10 10" refX="15" refY="-0.5" markerWidth="6" markerHeight="6" orient="auto"><path fill="#4b4b4b" d="M0,-5L10,0L0,5"></path></marker></defs><defs><marker id="arrow-test" viewBox="0 -5 10 10" refX="15" refY="-0.5" markerWidth="6" markerHeight="6" orient="auto"><path fill="#4b4b4b" d="M0,-5L10,0L0,5"></path></marker></defs><defs><marker id="arrow-test" viewBox="0 -5 10 10" refX="15" refY="-0.5" markerWidth="6" markerHeight="6" orient="auto"><path fill="#4b4b4b" d="M0,-5L10,0L0,5"></path></marker></defs><defs><marker id="arrow-test" viewBox="0 -5 10 10" refX="15" refY="-0.5" markerWidth="6" markerHeight="6" orient="auto"><path fill="#4b4b4b" d="M0,-5L10,0L0,5"></path></marker></defs><defs><marker id="arrow-test" viewBox="0 -5 10 10" refX="15" refY="-0.5" markerWidth="6" markerHeight="6" orient="auto"><path fill="#4b4b4b" d="M0,-5L10,0L0,5"></path></marker></defs><defs><marker id="arrow-test" viewBox="0 -5 10 10" refX="15" refY="-0.5" markerWidth="6" markerHeight="6" orient="auto"><path fill="#4b4b4b" d="M0,-5L10,0L0,5"></path></marker></defs><defs><marker id="arrow-test" viewBox="0 -5 10 10" refX="15" refY="-0.5" markerWidth="6" markerHeight="6" orient="auto"><path fill="#4b4b4b" d="M0,-5L10,0L0,5"></path></marker></defs><defs><marker id="arrow-test" viewBox="0 -5 10 10" refX="15" refY="-0.5" markerWidth="6" markerHeight="6" orient="auto"><path fill="#4b4b4b" d="M0,-5L10,0L0,5"></path></marker></defs><defs><marker id="arrow-test" viewBox="0 -5 10 10" refX="15" refY="-0.5" markerWidth="6" markerHeight="6" orient="auto"><path fill="#4b4b4b" d="M0,-5L10,0L0,5"></path></marker></defs><defs><marker id="arrow-test" viewBox="0 -5 10 10" refX="15" refY="-0.5" markerWidth="6" markerHeight="6" orient="auto"><path fill="#4b4b4b" d="M0,-5L10,0L0,5"></path></marker></defs></svg>